<?xml version="1.0" encoding="UTF-8"?>
<svg width="11px" height="16px" viewBox="0 0 11 16" version="1.1" xmlns="http://www.w3.org/2000/svg" xmlns:xlink="http://www.w3.org/1999/xlink">
    <!-- Generator: Sketch 47 (45396) - http://www.bohemiancoding.com/sketch -->
    <title>intro-arrow</title>
    <desc>Created with Sketch.</desc>
    <defs></defs>
    <g id="Page-1" stroke="none" stroke-width="1" fill="none" fill-rule="evenodd" fill-opacity="0.644757699">
        <g id="Desktop-HD" transform="translate(-194.000000, -152.000000)" fill="#FFFFFF">
            <g id="Header" transform="translate(78.000000, 143.000000)">
                <path d="M116,20.8461538 L116,23.0914317 C116,23.2948361 116.062028,23.4934041 116.177808,23.6606416 C116.492174,24.1147259 117.115126,24.2279899 117.56921,23.9136239 L117.56921,23.9136239 L126.367945,17.8221922 C126.466794,17.753758 126.552493,17.6680593 126.620927,17.56921 C126.935293,17.1151258 126.822029,16.4921738 126.367945,16.1778078 L117.56921,10.0863761 C117.401972,9.97059629 117.203404,9.90856833 117,9.90856833 C116.447715,9.90856833 116,10.3562836 116,10.9085683 L116,13.1538462 L120.367945,16.1778078 C120.822029,16.4921738 120.935293,17.1151258 120.620927,17.56921 C120.552493,17.6680593 120.466794,17.753758 120.367945,17.8221922 L116,20.8461538 Z" id="intro-arrow"></path>
            </g>
        </g>
    </g>
</svg>