<?xml version="1.0" encoding="UTF-8"?>
<svg width="760px" height="175px" viewBox="0 0 760 175" version="1.1" xmlns="http://www.w3.org/2000/svg" xmlns:xlink="http://www.w3.org/1999/xlink">
    <!-- Generator: Sketch 47 (45396) - http://www.bohemiancoding.com/sketch -->
    <title>logo</title>
    <desc>Created with Sketch.</desc>
    <defs>
        <path d="M130.472028,22.536932 L180.212654,110.908601 C191.861112,131.603831 184.527255,157.82357 163.832025,169.472028 C157.393252,173.096137 150.129264,175 142.740626,175 L43.259374,175 C19.5111297,175 0.259373964,155.748244 0.259373964,132 C0.259373964,124.611362 2.16323656,117.347374 5.78734591,110.908601 L55.5279719,22.536932 C67.17643,1.84170237 93.3961694,-5.49215504 114.091399,6.15630301 C120.9473,10.015196 126.613135,15.6810309 130.472028,22.536932 Z" id="path-1"></path>
    </defs>
    <g id="Page-1" stroke="none" stroke-width="1" fill="none" fill-rule="evenodd">
        <g id="logo">
            <g id="Rectangle-+-Rectangle-Mask" transform="translate(3.000000, 0.000000)">
                <mask id="mask-2" fill="white">
                    <use xlink:href="#path-1"></use>
                </mask>
                <use id="Triangle" fill="#9EFF66" xlink:href="#path-1"></use>
                <path d="M7.29794892,-70.2582667 C7.29794892,-70.2582667 263.582555,-81.3909156 169.259083,2.78602563 C74.9356114,86.9629668 26.0841267,259.15649 22.5162494,340.173968 C18.948372,421.191445 -137.998781,272.039379 -137.998781,272.039379 L7.29794892,-70.2582667 Z" id="Rectangle" fill="#36DE97" mask="url(#mask-2)"></path>
                <path d="M1.9025059,-99.0582517 C1.9025059,-99.0582517 258.419514,-101.239915 161.215769,-20.4060939 C64.0120234,60.4277273 9.18083045,230.811463 2.78765738,311.655069 C-3.60551569,392.498676 -155.251729,237.960093 -155.251729,237.960093 L1.9025059,-99.0582517 Z" id="Rectangle" fill="#1C92B3" mask="url(#mask-2)"></path>
            </g>
            <text id="LUCKY" font-family="LuloCleanOne-Bold, Lulo Clean" font-size="131" font-weight="bold" letter-spacing="-26.2555771" fill="#FFFFFF">
                <tspan x="239" y="140">LUCKY</tspan>
            </text>
        </g>
    </g>
</svg>